<?xml version="1.0" standalone="no"?>
<!DOCTYPE svg PUBLIC "-//W3C//DTD SVG 20010904//EN"
 "http://www.w3.org/TR/2001/REC-SVG-20010904/DTD/svg10.dtd">
<svg version="1.0" xmlns="http://www.w3.org/2000/svg"
 width="512.000000pt" height="512.000000pt" viewBox="0 0 512.000000 512.000000"
 preserveAspectRatio="xMidYMid meet">
<metadata>
Created by potrace 1.11, written by Peter Selinger 2001-2013
</metadata>
<g transform="translate(0.000000,512.000000) scale(0.100000,-0.100000)"
fill="#000000" stroke="none">
<path d="M2378 5115 c-2 -1 -34 -5 -73 -9 -38 -3 -97 -10 -130 -16 -33 -6 -76
-13 -95 -16 -106 -17 -413 -105 -434 -125 -6 -5 -16 -9 -23 -9 -14 0 -93 -35
-223 -100 -336 -166 -658 -437 -891 -750 -267 -358 -421 -741 -491 -1220 -13
-94 -17 -443 -6 -560 23 -242 106 -559 201 -770 94 -210 218 -418 333 -560
318 -391 696 -665 1134 -823 321 -116 570 -156 925 -151 116 2 221 5 235 8 14
2 48 7 75 11 202 27 490 107 655 182 681 306 1167 830 1410 1518 49 140 103
368 117 495 2 25 8 74 13 110 8 66 6 468 -3 505 -3 11 -8 45 -11 75 -56 450
-269 929 -574 1292 -107 126 -245 263 -342 338 -24 19 -53 43 -65 53 -98 88
-437 279 -620 350 -151 58 -345 114 -455 131 -19 3 -46 8 -60 11 -14 3 -52 8
-85 11 -33 4 -64 9 -69 12 -9 5 -442 12 -448 7z"/>
</g>
</svg>
